<svg width="125" height="125" viewBox="0 0 125 125" fill="none" xmlns="http://www.w3.org/2000/svg">
<path d="M62.4989 28.7031C65.4208 28.7031 68.327 30.5469 70.5406 34.2344L101.332 85.5573C105.765 92.9271 102.343 98.9583 93.7489 98.9583H31.2489C22.6551 98.9583 19.2333 92.9219 23.6655 85.5573L54.4572 34.2344C56.6708 30.5469 59.577 28.7031 62.4989 28.7031ZM62.4989 18.2865C55.7489 18.2865 49.5718 22.1406 45.5249 28.8646L14.7333 80.1979C10.6395 87.0156 10.1916 94.2865 13.5093 100.146C16.827 106.005 23.2958 109.375 31.2489 109.375H93.7489C101.702 109.375 108.176 106.01 111.488 100.151C114.801 94.2917 114.358 87.0208 110.265 80.2031L79.4728 28.8802C75.426 22.1406 69.2489 18.2865 62.4989 18.2865Z" fill="white"/>
<path d="M62.5003 90.1042C66.2398 90.1042 69.2712 87.0728 69.2712 83.3333C69.2712 79.5939 66.2398 76.5625 62.5003 76.5625C58.7609 76.5625 55.7295 79.5939 55.7295 83.3333C55.7295 87.0728 58.7609 90.1042 62.5003 90.1042Z" fill="white"/>
<path d="M70.3125 52.0833C70.3125 47.7604 66.8177 44.2708 62.5 44.2708C58.1823 44.2708 54.6875 47.7604 54.6875 52.0833C54.6875 53.1198 54.901 54.1094 55.2656 55.0104C58.151 62.1771 62.5 72.9167 62.5 72.9167C62.5 72.9167 66.849 62.1771 69.7448 55.0104C70.099 54.1094 70.3125 53.1198 70.3125 52.0833Z" fill="white"/>
</svg>
