<svg width="256" height="256" xmlns="http://www.w3.org/2000/svg">

 <g>
  <title>background</title>
  <rect fill="none" id="canvas_background" height="402" width="582" y="-1" x="-1"/>
 </g>
 <g>
  <title>Layer 1</title>
  <path fill="#f78a2f" id="svg_2" d="m149,142.8c-3.8,0 -6.9,3.1 -6.9,6.9l0,35.1c0,1.8 0.7,3.5 2,4.9c1.3,1.3 3,2 4.8,2l52.6,0c3.8,0 6.9,-3.1 6.9,-6.9l0,-35.2c0,-3.8 -3.1,-6.9 -6.9,-6.9l-52.5,0l0,0.1zm49.3,38.7l-45.9,0l0,-28.5l45.9,0l0,28.5z"/>
  <path fill="#f78a2f" id="svg_3" d="m160.7,203.8l-52.6,0c-1.8,0 -3.5,0.7 -4.9,2c-1.3,1.3 -2,3 -2,4.8l0,35.2c0,1.8 0.7,3.6 2,4.9c1.3,1.3 3,2 4.9,2l52.6,0c3.8,0 6.9,-3.1 6.9,-6.9l0,-35.2c0,-3.8 -3.1,-6.8 -6.9,-6.8zm-3.3,38.7l-46,0l0,-28.5l46,0l0,28.5z"/>
  <path fill="#f78a2f" id="svg_4" d="m242.5,203.8l-52.6,0c-3.8,0 -6.9,3.1 -6.9,6.8l0,35.2c0,1.8 0.7,3.6 2,4.9c1.3,1.3 3,2 4.9,2l52.6,0c3.8,0 6.9,-3.1 6.9,-6.9l0,-35.2c-0.1,-3.8 -3.1,-6.8 -6.9,-6.8zm-3.4,38.7l-46,0l0,-28.5l46,0l0,28.5z"/>
  <path fill="#f78a2f" id="svg_5" d="m112.1,118.5c-2.6,-1 -5.6,0.3 -6.6,2.9l-41.1,105.5c-0.3,0.8 -0.6,1.5 -1,2.2c-2.9,5.7 -7.9,10 -14.1,12.1c-6.2,2.1 -12.9,1.6 -18.8,-1.3c-5.9,-3 -10.3,-8 -12.4,-14.2c-2.3,-6.9 -1.5,-14.5 2.3,-20.7l65.5,-106.2c1.5,-2.4 0.7,-5.5 -1.7,-7c-2.4,-1.5 -5.5,-0.7 -7,1.7l-65.4,106.2c-5.4,8.8 -6.6,19.5 -3.2,29.2c2.9,8.8 9.2,15.9 17.5,20.1c4.9,2.4 10.1,3.7 15.4,3.7c3.7,0 7.5,-0.6 11.1,-1.8c8.7,-2.9 15.7,-9 19.9,-17.1c0.5,-1 1,-2.1 1.4,-3.2l41.1,-105.5c1.1,-2.7 -0.2,-5.6 -2.9,-6.6z"/>
  <path fill="#f78a2f" id="svg_6" d="m23.1,52.3l0.4,-0.2c21.9,-14.7 73.6,32.6 91.7,52.1l0.6,0.7l41.4,21l0,0c1.9,0.9 3.9,1.4 5.9,1.4c1.4,0 2.8,-0.2 4.2,-0.7c3.4,-1.1 6.1,-3.5 7.7,-6.7l25.3,-50.6c3.2,-6.5 0.6,-14.5 -6,-17.8l-80.7,-40.2c-17.9,-8.9 -38.2,-10.3 -57.2,-4c-19,6.4 -34.3,19.7 -43.2,37.7c-1.2,2.4 -0.2,5.4 1.4,6.9c0.9,0.7 3.9,3 8.5,0.4zm36.7,-35.4c16.4,-5.5 33.9,-4.3 49.4,3.4l80.6,40.2c1.5,0.8 2.2,2.7 1.4,4.2l-25.2,50.6c-0.4,0.7 -1,1.3 -1.8,1.5c-0.8,0.3 -1.6,0.2 -2.4,-0.2l-39.7,-20.2c-8.8,-9.3 -60.1,-62.2 -93.6,-57.1c7.8,-10.3 18.6,-18.1 31.3,-22.4z"/>
 </g>
</svg>