<svg width="387.991" height="355.30300000000005" xmlns="http://www.w3.org/2000/svg">

 <g>
  <title>background</title>
  <rect fill="none" id="canvas_background" height="402" width="582" y="-1" x="-1"/>
 </g>
 <g>
  <title>Layer 1</title>
  <path fill="#f78a2f" id="path2072" d="m194.026,291.861l-0.058,0l-104.733,0l0,33.069c0,40.257 -58.238,40.736 -58.238,0l0,-33.069l-30.997,0l0,-103.56c0,-27.796 22.358,-42.485 34.984,-44.088l31.874,-81.397c6,-15.5 19,-28.748 43.5,-28.748l45.539,0l0,-21.252c0,-8.5 4.61,-12.816 12.11,-12.816l25.961,0l0.058,0l-0.062,0l0.059,0l26.461,0c7.5,0 12.11,4.316 12.11,12.816l0,21.252l45.016,0c24.5,0 37.5,13.248 43.5,28.748l31.874,81.397c12.626,1.603 35.007,16.292 35.007,44.088l0,103.56l-30.997,0l0,33.069c0,40.736 -58.238,40.257 -58.238,0l0,-33.069l-104.733,0l-0.059,0l0.062,0z"/>
  <path fill="#ffffff" id="path2076" d="m193.964,142.296l-0.059,0l-125.921,0l23.998,-62.98c3,-9 7.502,-15.5 18.002,-15.597l83.921,0l0.059,0l0.059,0l83.963,0c10.5,0.097 15,6.597 18,15.597l23.998,62.98l-125.961,0l-0.059,0z"/>
  <path fill="#ffffff" id="path2082" d="m61.043,228.552c-14.856,0 -26.901,-12.291 -26.901,-27.45c0,-15.159 12.045,-27.449 26.901,-27.449c14.856,0 26.9,12.29 26.9,27.449c0,15.159 -12.044,27.45 -26.9,27.45z"/>
  <path fill="#ffffff" id="path2084"/>
  <path fill="#ffffff" id="path2088" d="m326.926,228.552c14.856,0 26.9,-12.291 26.9,-27.45c0,-15.159 -12.044,-27.449 -26.9,-27.449c-14.856,0 -26.901,12.29 -26.901,27.449c0,15.159 12.045,27.45 26.901,27.45z"/>
  <path fill="#ffffff" id="path2090"/>
 </g>
</svg>