<svg width="48" height="48" xmlns="http://www.w3.org/2000/svg">

 <g>
  <title>background</title>
  <rect fill="none" id="canvas_background" height="402" width="582" y="-1" x="-1"/>
 </g>
 <g>
  <title>Layer 1</title>
  <path id="svg_2" fill="#f78a2f" d="m32.253,12.46c0.732,0.732 1.918,0.734 2.65,0l2.608,-2.608c0.731,-0.732 0.729,-1.918 0,-2.651l-6.583,-6.581c-0.73,-0.732 -1.916,-0.732 -2.648,0l-2.609,2.608c-0.73,0.732 -0.73,1.918 0,2.648l6.582,6.584z"/>
  <path id="svg_3" fill="#f78a2f" d="m16.667,28.338c0.731,0.729 1.917,0.729 2.648,0l2.609,-2.61c0.732,-0.73 0.732,-1.917 0,-2.649l-6.583,-6.583c-0.731,-0.73 -1.917,-0.732 -2.649,0l-2.608,2.608c-0.732,0.732 -0.73,1.918 0,2.65l6.583,6.584z"/>
  <path id="svg_4" fill="#f78a2f" d="m46.549,28.964l-2.647,-2.65c-0.734,-0.73 -1.917,-0.73 -2.648,0l-1.161,1.16l-11.205,-11.207l2.427,-2.428l-6.733,-6.731l-2.428,2.428l-3.092,3.09l-2.374,2.374l6.732,6.733l2.377,-2.373l11.203,11.205l-1.048,1.049c-0.732,0.729 -0.734,1.916 0,2.648l2.647,2.648c0.734,0.734 1.919,0.734 2.65,0l5.299,-5.297c0.733,-0.733 0.733,-1.917 0.001,-2.649z"/>
  <path id="svg_5" fill="#f78a2f" d="m26.978,37.013c0,-1.199 -0.972,-2.173 -2.173,-2.173l-16.968,0c-1.2,0 -2.173,0.974 -2.173,2.173l0,3.527l-4.763,0l0,7.389l30.558,0l0,-7.389l-4.481,0l0,-3.527z"/>
 </g>
</svg>