<svg width="400" height="400" xmlns="http://www.w3.org/2000/svg">

 <g>
  <title>background</title>
  <rect fill="none" id="canvas_background" height="402" width="582" y="-1" x="-1"/>
 </g>
 <g>
  <title>Layer 1</title>
  <path id="path0" fill-rule="evenodd" fill="#000000"/>
  <path id="path1" fill-rule="evenodd" fill="#2b2b2b"/>
  <path id="path2" fill-rule="evenodd" fill="#f78a2f" d="m183.984,0.433c-121.413,10.305 -205.34,123.708 -179.456,242.487c28.603,131.255 178.217,197.342 295.081,130.343c56.417,-32.344 91.722,-86.859 99.685,-153.927c0.698,-5.874 0.698,-33.189 0,-39.063c-11.735,-98.838 -85.803,-171.514 -183.278,-179.834c-5.053,-0.431 -26.97,-0.435 -32.032,-0.006m27.539,16.373c114.203,7.566 193.686,115.426 166.805,226.358c-19.852,81.927 -93.845,140.027 -178.328,140.027c-101.125,0 -183.594,-82.375 -183.594,-183.386c0,-105.491 90.061,-189.958 195.117,-182.999m-91.43,96.819c-10.121,2.614 -13.632,15.513 -6.236,22.909c5.267,5.267 13.704,5.344 18.876,0.173l1.55,-1.551l20.456,0.009l20.456,0.009l1.856,1.771l1.855,1.77l0,4.275l0,4.276l-9.707,0c-15.392,0 -16.051,0.556 -16.065,13.574l-0.009,7.519l-27.344,0l-27.343,0l0,22.071l0,22.07l30.404,0l30.405,0l2.115,3.605c11.451,19.524 38.312,19.108 50.304,-0.778l1.705,-2.827l11.306,0c15.409,0 16.731,0.46 18.599,6.471c1.297,4.176 1.262,5.301 -0.21,6.773c-3.023,3.023 -2.484,7.818 1.208,10.757l1.501,1.194l24.856,0.109c18.498,0.081 25.158,-0.01 26.038,-0.355c5.467,-2.146 6.427,-9.766 1.627,-12.912l-1.339,-0.878l-0.183,-14.661c-0.261,-20.877 -2.159,-26.016 -12.419,-33.622c-8.546,-6.335 -12.756,-7.009 -43.828,-7.013l-22.558,-0.004l-0.016,-4.394c-0.057,-16.163 -0.554,-16.699 -15.475,-16.699l-9.509,0l0,-4.331l0,-4.332l1.855,-1.708l1.856,-1.708l18.571,-0.015l18.571,-0.016l1.703,1.735c8.116,8.27 22.48,1.927 22.482,-9.928c0.002,-12.139 -14.525,-18.273 -22.854,-9.651l-1.755,1.816l-18.126,0.006l-18.126,0.007l-2.088,-1.975c-5.46,-5.164 -12.781,-5.164 -18.241,0l-2.088,1.975l-20.012,0l-20.013,0l-1.776,-1.777c-3.346,-3.345 -8.521,-4.853 -12.835,-3.739m148.615,131.771c-2.018,4.014 -6.021,13.016 -7.958,17.895c-0.808,2.035 -1.783,4.404 -2.168,5.264c-6.118,13.681 -10.145,27.236 -9.677,32.57c2.567,29.257 43.434,27.648 43.452,-1.711c0.003,-5.045 -0.192,-5.829 -3.876,-15.625c-5.069,-13.476 -17.136,-41.601 -17.849,-41.601c-0.171,0 -1.037,1.443 -1.924,3.208"/>
  <path id="path3" fill-rule="evenodd" fill="#404040"/>
  <path id="path4" fill-rule="evenodd" fill="#555555"/>
 </g>
</svg>