<svg width="133" height="117" viewBox="0 0 133 117" fill="none" xmlns="http://www.w3.org/2000/svg">
<g clip-path="url(#clip0)">
<path d="M130.865 21.2045L112.68 37.2013C110.999 38.6826 108.676 39.5969 106.111 39.5969C103.543 39.5969 101.215 38.6826 99.5327 37.2013L95.1497 33.3474C93.4673 31.8661 92.4305 29.8216 92.4305 27.5629C92.4305 25.3042 93.4673 23.2608 95.1497 21.7807L113.334 5.78392C102.217 1.95217 89.0876 3.9827 80.1041 11.8861C68.0011 22.5313 68.0011 39.7929 80.1041 50.4376C92.2078 61.0851 111.827 61.0851 123.928 50.4376C132.914 42.5354 135.221 30.9869 130.865 21.2045Z" fill="#E16600"/>
<path d="M33.3045 70.5311L14.4344 85.9225C11.0988 88.6451 8.97812 92.5113 8.88502 96.8298C8.79192 101.148 10.745 105.081 13.9636 107.911L14.7743 108.624C17.9902 111.454 22.4603 113.174 27.3694 113.092C32.2811 113.011 36.6714 111.145 39.7676 108.209L57.2638 91.6087L33.3045 70.5311ZM32.4805 101.971C29.4588 104.634 24.5524 104.634 21.5253 101.971C18.5009 99.3102 18.5009 94.9941 21.5253 92.3335C24.5524 89.67 29.4588 89.67 32.4805 92.3335C35.505 94.9941 35.505 99.3102 32.4805 101.971Z" fill="#E16600"/>
<path d="M63.0975 44.3103C61.8992 44.3103 60.8146 44.7356 60.0305 45.4265L39.8717 63.1619C39.085 63.8522 38.6016 64.8069 38.6016 65.8599C38.6016 66.9147 39.085 67.8688 39.8717 68.558L85.0086 108.268C92.2751 114.657 104.044 114.654 111.304 108.268C118.568 101.88 118.568 91.5245 111.304 85.1357L66.1645 45.4265C65.3804 44.7356 64.2965 44.3103 63.0975 44.3103ZM93.9941 98.0507C95.1984 99.1114 95.1984 100.846 93.9941 101.905C92.7898 102.967 90.8154 102.967 89.6111 101.905L50.1699 67.209C48.9636 66.1495 48.9636 64.415 50.1699 63.3532C51.3742 62.2938 53.3459 62.2938 54.5523 63.3532L93.9941 98.0507ZM104.075 89.1839C105.279 90.2445 105.279 91.979 104.075 93.0396C102.87 94.1002 100.896 94.1002 99.6918 93.0396L60.2506 58.3415C59.0417 57.2809 59.0417 55.5464 60.2506 54.4864C61.4523 53.4258 63.4267 53.4258 64.6303 54.4875L104.075 89.1839Z" fill="#3A3A3A"/>
<path d="M12.6004 31.9568L17.5307 31.8058L43.3134 54.4857L49.8856 48.7024L24.1063 26.0243L24.2765 21.6859C24.2898 21.318 24.1994 20.9401 23.9892 20.5902C23.7797 20.2398 23.4712 19.9625 23.1147 19.7648L6.57552 10.6049L0 16.3858L10.4186 30.9389C10.6393 31.2524 10.9585 31.5186 11.3542 31.7046C11.7525 31.8895 12.1808 31.9696 12.6004 31.9568Z" fill="#3A3A3A"/>
</g>
<defs>
<clipPath id="clip0">
<rect width="133" height="117" fill="white"/>
</clipPath>
</defs>
</svg>
