<svg width="96" height="96" xmlns="http://www.w3.org/2000/svg">
 <title/>

 <g>
  <title>background</title>
  <rect fill="none" id="canvas_background" height="402" width="582" y="-1" x="-1"/>
 </g>
 <g>
  <title>Layer 1</title>
  <path fill="#f78a2f" id="svg_2" d="m48,60a12,12 0 1 0 12,12a12.0081,12.0081 0 0 0 -12,-12z"/>
  <path fill="#f78a2f" id="svg_3" d="m22.6055,46.6289a5.9994,5.9994 0 1 0 8.5078,8.4611a24.2258,24.2258 0 0 1 33.7734,0a5.9512,5.9512 0 0 0 4.2539,1.77a6,6 0 0 0 4.2539,-10.23c-13.6172,-13.712 -37.1718,-13.712 -50.789,-0.0011z"/>
  <path fill="#f78a2f" id="svg_4" d="m90.27,29.7773a59.1412,59.1412 0 0 0 -84.539,0a5.9994,5.9994 0 1 0 8.5312,8.4375c18.1172,-18.3281 49.3594,-18.3281 67.4766,0a5.9994,5.9994 0 1 0 8.5312,-8.4375z"/>
 </g>
</svg>